<svg xmlns="http://www.w3.org/2000/svg" xmlns:xlink="http://www.w3.org/1999/xlink" width="135" height="135" viewBox="0 0 135 135">
  <defs>
    <clipPath id="clip-iPhone_X_XS_11_Pro_19">
      <rect width="135" height="135"/>
    </clipPath>
  </defs>
  <g id="iPhone_X_XS_11_Pro_19" data-name="iPhone X, XS, 11 Pro – 19" clip-path="url(#clip-iPhone_X_XS_11_Pro_19)">
    <path id="star_orange" d="M57.188,5.242a15,15,0,0,1,21.623,0l3.893,4.048a15,15,0,0,0,12.41,4.517l5.584-.6a15,15,0,0,1,16.565,13.9l.38,5.6a15,15,0,0,0,6.6,11.438l4.663,3.131a15,15,0,0,1,3.754,21.295l-3.31,4.537a15,15,0,0,0-2.294,13.006l1.56,5.4a15,15,0,0,1-10.812,18.726l-5.453,1.348a15,15,0,0,0-10.117,8.489l-2.274,5.136a15,15,0,0,1-20.319,7.4L74.6,130.138a15,15,0,0,0-13.207,0l-5.043,2.472a15,15,0,0,1-20.319-7.4l-2.274-5.136a15,15,0,0,0-10.117-8.489l-5.453-1.348A15,15,0,0,1,7.378,91.516l1.559-5.4A15,15,0,0,0,6.644,73.113L3.334,68.576A15,15,0,0,1,7.088,47.281l4.663-3.131a15,15,0,0,0,6.6-11.437l.38-5.6A15,15,0,0,1,35.3,13.209l5.585.6a15,15,0,0,0,12.41-4.517Z" transform="translate(-0.449 0.107)" fill="#5d20d2"/>
  </g>
</svg>
